# xmcd
#
# Track frame offsets: 
#        150
#        14606
#        27206
#        42477
#        57589
#        73470
#        85263
#        96925
#        109037
#        119143
#        132418
#        147521
#        158339
#
# Disc length: 2293 seconds
#
# Revision: 0
# Processed by: cddbd v1.5.2PL0 Copyright (c) Steve Scherf et al.
# Submitted via: ExactAudioCopyFreeDBPlugin 1.0
#
DISCID=c308f30d
DTITLE=Klub des loosers - La fin de l'espèce
DYEAR=2011
DGENRE=Rap
TTITLE0=Vieille branche
TTITLE1=L'indien
TTITLE2=Volutes
TTITLE3=Destin d'hymen
TTITLE4=L'animal
TTITLE5=Encore merci
TTITLE6=La fin de l'espèce
TTITLE7=La chute
TTITLE8=Mauvais rêve
TTITLE9=Jeu de massacre
TTITLE10=Non-père
TTITLE11=Cate postale
TTITLE12=Au commencement
EXTD=
EXTT0=
EXTT1=
EXTT2=
EXTT3=
EXTT4=
EXTT5=
EXTT6=
EXTT7=
EXTT8=
EXTT9=
EXTT10=
EXTT11=
EXTT12=
PLAYORDER=
